<?xml version="1.0" encoding="utf-8"?>
<!DOCTYPE svg PUBLIC "-//W3C//DTD SVG 20010904//EN" "http://www.w3.org/TR/2001/REC-SVG-20010904/DTD/svg10.dtd">
<svg version="1.0" xmlns="http://www.w3.org/2000/svg" width="276px" height="307px" viewBox="0 0 276 307" preserveAspectRatio="xMidYMid meet">
 <g fill="#68bd45">
  <path d="M59.3 272.1 l-58.3 -33.6 0 -79.1 0 -79.1 68.2 -39.4 c37.6 -21.7 68.8 -39.4 69.3 -39.4 0.6 0 31.8 17.7 69.3 39.4 l68.2 39.3 0 79.2 0 79.1 -58.3 33.6 -58.2 33.6 -0.3 -46.4 c-0.1 -25.6 -0.6 -46.3 -1.1 -46.1 -0.4 0.2 -4.6 5 -9.1 10.8 -4.6 5.8 -8.6 10.9 -9 11.4 -0.5 0.4 -5.5 -4.7 -11.2 -11.3 l-10.3 -12.2 -0.5 46.9 -0.5 46.8 -58.2 -33.5z m23.5 -184.7 l34.7 -20.1 0.3 43.4 0.2 43.3 20.5 0 20.5 0 0.2 -43.4 0.3 -43.3 34.7 20 34.8 20.1 0.2 63.3 0.3 63.2 9 -5.3 9 -5.2 0.3 -64 0.2 -63.9 -53.7 -31 c-29.5 -17.1 -54.6 -31 -55.8 -31 -1.1 0 -26.2 14 -55.8 31 l-53.7 31 0.3 63.9 0.2 64 9 5.2 9 5.2 0.3 -63.2 0.2 -63.2 34.8 -20z"/>
 </g>
</svg>